<mxfile host="65bd71144e">
    <diagram id="dPHrZzhrnpa14u5o4RpN" name="Page-1">
        <mxGraphModel dx="1661" dy="525" grid="1" gridSize="10" guides="1" tooltips="1" connect="1" arrows="1" fold="1" page="1" pageScale="1" pageWidth="850" pageHeight="1100" math="0" shadow="0">
            <root>
                <mxCell id="0"/>
                <mxCell id="1" parent="0"/>
                <mxCell id="4" value="" style="edgeStyle=none;html=1;" parent="1" source="2" target="3" edge="1">
                    <mxGeometry relative="1" as="geometry"/>
                </mxCell>
                <mxCell id="62" style="edgeStyle=none;html=1;entryX=0.5;entryY=0;entryDx=0;entryDy=0;" parent="1" source="2" target="41" edge="1">
                    <mxGeometry relative="1" as="geometry"/>
                </mxCell>
                <mxCell id="66" value="" style="edgeStyle=none;html=1;" parent="1" source="2" target="65" edge="1">
                    <mxGeometry relative="1" as="geometry"/>
                </mxCell>
                <mxCell id="68" value="" style="edgeStyle=none;html=1;" parent="1" source="2" target="67" edge="1">
                    <mxGeometry relative="1" as="geometry"/>
                </mxCell>
                <mxCell id="70" value="" style="edgeStyle=none;html=1;" parent="1" source="2" target="67" edge="1">
                    <mxGeometry relative="1" as="geometry"/>
                </mxCell>
                <mxCell id="72" value="" style="edgeStyle=none;html=1;" parent="1" source="2" target="71" edge="1">
                    <mxGeometry relative="1" as="geometry"/>
                </mxCell>
                <mxCell id="74" value="" style="edgeStyle=none;html=1;" parent="1" source="2" target="73" edge="1">
                    <mxGeometry relative="1" as="geometry"/>
                </mxCell>
                <mxCell id="76" value="" style="edgeStyle=none;html=1;" parent="1" source="2" target="75" edge="1">
                    <mxGeometry relative="1" as="geometry"/>
                </mxCell>
                <mxCell id="78" value="" style="edgeStyle=none;html=1;" parent="1" source="2" target="77" edge="1">
                    <mxGeometry relative="1" as="geometry"/>
                </mxCell>
                <mxCell id="2" value="App.js" style="ellipse;whiteSpace=wrap;html=1;" parent="1" vertex="1">
                    <mxGeometry x="365" width="120" height="80" as="geometry"/>
                </mxCell>
                <mxCell id="10" value="" style="edgeStyle=none;html=1;startArrow=none;" parent="1" source="23" target="9" edge="1">
                    <mxGeometry relative="1" as="geometry"/>
                </mxCell>
                <mxCell id="16" value="" style="edgeStyle=none;html=1;startArrow=none;" parent="1" source="28" target="15" edge="1">
                    <mxGeometry relative="1" as="geometry"/>
                </mxCell>
                <mxCell id="18" value="" style="edgeStyle=none;html=1;startArrow=none;" parent="1" source="31" target="17" edge="1">
                    <mxGeometry relative="1" as="geometry"/>
                </mxCell>
                <mxCell id="3" value="DogPage" style="ellipse;whiteSpace=wrap;html=1;" parent="1" vertex="1">
                    <mxGeometry x="-35" y="480" width="120" height="80" as="geometry"/>
                </mxCell>
                <mxCell id="14" value="" style="edgeStyle=none;html=1;startArrow=none;" parent="1" source="37" target="13" edge="1">
                    <mxGeometry relative="1" as="geometry"/>
                </mxCell>
                <mxCell id="26" style="edgeStyle=none;html=1;entryX=0.5;entryY=1;entryDx=0;entryDy=0;" parent="1" source="9" target="23" edge="1">
                    <mxGeometry relative="1" as="geometry"/>
                </mxCell>
                <mxCell id="9" value="Doglist" style="ellipse;whiteSpace=wrap;html=1;" parent="1" vertex="1">
                    <mxGeometry x="-35" y="740" width="120" height="80" as="geometry"/>
                </mxCell>
                <mxCell id="79" style="edgeStyle=none;html=1;startArrow=none;" edge="1" parent="1" source="82">
                    <mxGeometry relative="1" as="geometry">
                        <mxPoint x="25" y="1050" as="targetPoint"/>
                    </mxGeometry>
                </mxCell>
                <mxCell id="13" value="DogCard" style="ellipse;whiteSpace=wrap;html=1;" parent="1" vertex="1">
                    <mxGeometry x="-35" y="900" width="120" height="80" as="geometry"/>
                </mxCell>
                <mxCell id="15" value="AddDog" style="ellipse;whiteSpace=wrap;html=1;" parent="1" vertex="1">
                    <mxGeometry x="185" y="750" width="120" height="80" as="geometry"/>
                </mxCell>
                <mxCell id="17" value="EditDog" style="ellipse;whiteSpace=wrap;html=1;" parent="1" vertex="1">
                    <mxGeometry x="-255" y="750" width="120" height="80" as="geometry"/>
                </mxCell>
                <mxCell id="19" value="useState:&lt;br&gt;dogs,setDogs&lt;br&gt;deleteDog,setDeleteDog&lt;br&gt;searcg,setSearch" style="text;html=1;strokeColor=none;fillColor=none;align=center;verticalAlign=middle;whiteSpace=wrap;rounded=0;" parent="1" vertex="1">
                    <mxGeometry x="95" y="470" width="90" height="30" as="geometry"/>
                </mxCell>
                <mxCell id="20" value="fetch:&lt;br&gt;/dogs&lt;br&gt;/dogs/&amp;lt;int:id&amp;gt;" style="text;html=1;strokeColor=none;fillColor=none;align=center;verticalAlign=middle;whiteSpace=wrap;rounded=0;" parent="1" vertex="1">
                    <mxGeometry x="-125" y="470" width="90" height="30" as="geometry"/>
                </mxCell>
                <mxCell id="21" value="Callbacks:&lt;br&gt;addDog&lt;br&gt;editDog" style="text;html=1;strokeColor=none;fillColor=none;align=center;verticalAlign=middle;whiteSpace=wrap;rounded=0;" parent="1" vertex="1">
                    <mxGeometry x="-125" y="520" width="90" height="30" as="geometry"/>
                </mxCell>
                <mxCell id="22" value="" style="edgeStyle=none;html=1;endArrow=none;" parent="1" source="3" target="23" edge="1">
                    <mxGeometry relative="1" as="geometry">
                        <mxPoint x="25" y="560" as="sourcePoint"/>
                        <mxPoint x="25" y="650" as="targetPoint"/>
                    </mxGeometry>
                </mxCell>
                <mxCell id="23" value="filteredDogs&lt;br&gt;search term for search input&lt;br&gt;setSearch term/ handlesearch" style="text;html=1;strokeColor=none;fillColor=none;align=center;verticalAlign=middle;whiteSpace=wrap;rounded=0;" parent="1" vertex="1">
                    <mxGeometry x="-5" y="640" width="60" height="30" as="geometry"/>
                </mxCell>
                <mxCell id="27" value="" style="edgeStyle=none;html=1;endArrow=none;" parent="1" source="3" target="28" edge="1">
                    <mxGeometry relative="1" as="geometry">
                        <mxPoint x="53.66631681459512" y="555.1393560953104" as="sourcePoint"/>
                        <mxPoint x="216.29700266120994" y="754.8739543056763" as="targetPoint"/>
                    </mxGeometry>
                </mxCell>
                <mxCell id="28" value="addDog callback" style="text;html=1;strokeColor=none;fillColor=none;align=center;verticalAlign=middle;whiteSpace=wrap;rounded=0;" parent="1" vertex="1">
                    <mxGeometry x="90" y="626" width="60" height="30" as="geometry"/>
                </mxCell>
                <mxCell id="30" value="" style="edgeStyle=none;html=1;endArrow=none;" parent="1" source="3" target="31" edge="1">
                    <mxGeometry relative="1" as="geometry">
                        <mxPoint x="-3.5541166765383423" y="555.1799338059009" as="sourcePoint"/>
                        <mxPoint x="-166.3169616302115" y="754.8667089824601" as="targetPoint"/>
                    </mxGeometry>
                </mxCell>
                <mxCell id="31" value="editDog&lt;br&gt;callback" style="text;html=1;strokeColor=none;fillColor=none;align=center;verticalAlign=middle;whiteSpace=wrap;rounded=0;" parent="1" vertex="1">
                    <mxGeometry x="-125" y="645" width="60" height="30" as="geometry"/>
                </mxCell>
                <mxCell id="32" value="onChange:&lt;br&gt;event.target.value onSubmit: Post fetch" style="text;html=1;strokeColor=none;fillColor=none;align=center;verticalAlign=middle;whiteSpace=wrap;rounded=0;" parent="1" vertex="1">
                    <mxGeometry x="305" y="740" width="60" height="30" as="geometry"/>
                </mxCell>
                <mxCell id="33" value="state:&lt;br&gt;formDatat,setFormData[&lt;br&gt;name:&quot;&quot;, breed:&quot;&quot;,&lt;br&gt;]" style="text;html=1;strokeColor=none;fillColor=none;align=center;verticalAlign=middle;whiteSpace=wrap;rounded=0;" parent="1" vertex="1">
                    <mxGeometry x="305" y="830" width="60" height="30" as="geometry"/>
                </mxCell>
                <mxCell id="34" value="onChange:&lt;br&gt;event.target.value onSubmit: Patch request" style="text;html=1;strokeColor=none;fillColor=none;align=center;verticalAlign=middle;whiteSpace=wrap;rounded=0;" parent="1" vertex="1">
                    <mxGeometry x="-315" y="730" width="60" height="30" as="geometry"/>
                </mxCell>
                <mxCell id="35" value="Map dog cards" style="text;html=1;strokeColor=none;fillColor=none;align=center;verticalAlign=middle;whiteSpace=wrap;rounded=0;" parent="1" vertex="1">
                    <mxGeometry x="-65" y="740" width="30" height="30" as="geometry"/>
                </mxCell>
                <mxCell id="36" value="" style="edgeStyle=none;html=1;endArrow=none;" parent="1" source="9" target="37" edge="1">
                    <mxGeometry relative="1" as="geometry">
                        <mxPoint x="25" y="830" as="sourcePoint"/>
                        <mxPoint x="25" y="900" as="targetPoint"/>
                    </mxGeometry>
                </mxCell>
                <mxCell id="37" value="key, dog" style="text;html=1;strokeColor=none;fillColor=none;align=center;verticalAlign=middle;whiteSpace=wrap;rounded=0;" parent="1" vertex="1">
                    <mxGeometry x="-5" y="845" width="60" height="30" as="geometry"/>
                </mxCell>
                <mxCell id="38" value="" style="edgeStyle=none;html=1;startArrow=none;" parent="1" source="52" target="44" edge="1">
                    <mxGeometry relative="1" as="geometry"/>
                </mxCell>
                <mxCell id="39" value="" style="edgeStyle=none;html=1;startArrow=none;" parent="1" source="54" target="46" edge="1">
                    <mxGeometry relative="1" as="geometry"/>
                </mxCell>
                <mxCell id="40" value="" style="edgeStyle=none;html=1;startArrow=none;" parent="1" source="56" target="47" edge="1">
                    <mxGeometry relative="1" as="geometry"/>
                </mxCell>
                <mxCell id="41" value="ShelterPage" style="ellipse;whiteSpace=wrap;html=1;" parent="1" vertex="1">
                    <mxGeometry x="705" y="480" width="120" height="80" as="geometry"/>
                </mxCell>
                <mxCell id="42" value="" style="edgeStyle=none;html=1;startArrow=none;" parent="1" source="61" target="45" edge="1">
                    <mxGeometry relative="1" as="geometry"/>
                </mxCell>
                <mxCell id="43" style="edgeStyle=none;html=1;entryX=0.5;entryY=1;entryDx=0;entryDy=0;" parent="1" source="44" target="52" edge="1">
                    <mxGeometry relative="1" as="geometry"/>
                </mxCell>
                <mxCell id="44" value="Shelterlist" style="ellipse;whiteSpace=wrap;html=1;" parent="1" vertex="1">
                    <mxGeometry x="705" y="740" width="120" height="80" as="geometry"/>
                </mxCell>
                <mxCell id="45" value="ShelterCard" style="ellipse;whiteSpace=wrap;html=1;" parent="1" vertex="1">
                    <mxGeometry x="705" y="900" width="120" height="80" as="geometry"/>
                </mxCell>
                <mxCell id="46" value="AddShelter" style="ellipse;whiteSpace=wrap;html=1;" parent="1" vertex="1">
                    <mxGeometry x="925" y="750" width="120" height="80" as="geometry"/>
                </mxCell>
                <mxCell id="47" value="EditShelter" style="ellipse;whiteSpace=wrap;html=1;" parent="1" vertex="1">
                    <mxGeometry x="485" y="750" width="120" height="80" as="geometry"/>
                </mxCell>
                <mxCell id="48" value="useState:&lt;br&gt;shelters,setShelters&lt;br&gt;deleteShelter,setDeleteShelter&lt;br&gt;search,setSearch" style="text;html=1;strokeColor=none;fillColor=none;align=center;verticalAlign=middle;whiteSpace=wrap;rounded=0;" parent="1" vertex="1">
                    <mxGeometry x="835" y="470" width="90" height="30" as="geometry"/>
                </mxCell>
                <mxCell id="49" value="fetch:&lt;br&gt;/shelters&lt;br&gt;/shelters/&amp;lt;int:id&amp;gt;" style="text;html=1;strokeColor=none;fillColor=none;align=center;verticalAlign=middle;whiteSpace=wrap;rounded=0;" parent="1" vertex="1">
                    <mxGeometry x="615" y="470" width="90" height="30" as="geometry"/>
                </mxCell>
                <mxCell id="50" value="Callbacks:&lt;br&gt;addShelter&lt;br&gt;editShelter" style="text;html=1;strokeColor=none;fillColor=none;align=center;verticalAlign=middle;whiteSpace=wrap;rounded=0;" parent="1" vertex="1">
                    <mxGeometry x="615" y="520" width="90" height="30" as="geometry"/>
                </mxCell>
                <mxCell id="51" value="" style="edgeStyle=none;html=1;endArrow=none;" parent="1" source="41" target="52" edge="1">
                    <mxGeometry relative="1" as="geometry">
                        <mxPoint x="765" y="560" as="sourcePoint"/>
                        <mxPoint x="765" y="650" as="targetPoint"/>
                    </mxGeometry>
                </mxCell>
                <mxCell id="52" value="filteredShelters&lt;br&gt;search term for search input&lt;br&gt;setSearch term/ handlesearch" style="text;html=1;strokeColor=none;fillColor=none;align=center;verticalAlign=middle;whiteSpace=wrap;rounded=0;" parent="1" vertex="1">
                    <mxGeometry x="735" y="640" width="60" height="30" as="geometry"/>
                </mxCell>
                <mxCell id="53" value="" style="edgeStyle=none;html=1;endArrow=none;" parent="1" source="41" target="54" edge="1">
                    <mxGeometry relative="1" as="geometry">
                        <mxPoint x="793.6663168145951" y="555.1393560953104" as="sourcePoint"/>
                        <mxPoint x="956.29700266121" y="754.8739543056763" as="targetPoint"/>
                    </mxGeometry>
                </mxCell>
                <mxCell id="54" value="addShelter callback" style="text;html=1;strokeColor=none;fillColor=none;align=center;verticalAlign=middle;whiteSpace=wrap;rounded=0;" parent="1" vertex="1">
                    <mxGeometry x="850" y="645" width="60" height="30" as="geometry"/>
                </mxCell>
                <mxCell id="55" value="" style="edgeStyle=none;html=1;endArrow=none;" parent="1" source="41" target="56" edge="1">
                    <mxGeometry relative="1" as="geometry">
                        <mxPoint x="736.4458833234617" y="555.1799338059009" as="sourcePoint"/>
                        <mxPoint x="573.6830383697885" y="754.8667089824601" as="targetPoint"/>
                    </mxGeometry>
                </mxCell>
                <mxCell id="56" value="editShelter&lt;br&gt;callback" style="text;html=1;strokeColor=none;fillColor=none;align=center;verticalAlign=middle;whiteSpace=wrap;rounded=0;" parent="1" vertex="1">
                    <mxGeometry x="615" y="645" width="60" height="30" as="geometry"/>
                </mxCell>
                <mxCell id="57" value="onChange:&lt;br&gt;event.target.value onSubmit: Post fetch" style="text;html=1;strokeColor=none;fillColor=none;align=center;verticalAlign=middle;whiteSpace=wrap;rounded=0;" parent="1" vertex="1">
                    <mxGeometry x="1045" y="740" width="60" height="30" as="geometry"/>
                </mxCell>
                <mxCell id="58" value="state:&lt;br&gt;formDatat,setFormData[&lt;br&gt;name:&quot;&quot;, address:&quot;&quot;,&lt;br&gt;]" style="text;html=1;strokeColor=none;fillColor=none;align=center;verticalAlign=middle;whiteSpace=wrap;rounded=0;" parent="1" vertex="1">
                    <mxGeometry x="1045" y="830" width="60" height="30" as="geometry"/>
                </mxCell>
                <mxCell id="59" value="Map shelter cards" style="text;html=1;strokeColor=none;fillColor=none;align=center;verticalAlign=middle;whiteSpace=wrap;rounded=0;" parent="1" vertex="1">
                    <mxGeometry x="675" y="740" width="30" height="30" as="geometry"/>
                </mxCell>
                <mxCell id="60" value="" style="edgeStyle=none;html=1;endArrow=none;" parent="1" source="44" target="61" edge="1">
                    <mxGeometry relative="1" as="geometry">
                        <mxPoint x="765" y="830" as="sourcePoint"/>
                        <mxPoint x="765" y="900" as="targetPoint"/>
                    </mxGeometry>
                </mxCell>
                <mxCell id="61" value="key, shelter" style="text;html=1;strokeColor=none;fillColor=none;align=center;verticalAlign=middle;whiteSpace=wrap;rounded=0;" parent="1" vertex="1">
                    <mxGeometry x="735" y="845" width="60" height="30" as="geometry"/>
                </mxCell>
                <mxCell id="63" value="onChange:&lt;br&gt;event.target.value onSubmit: Patch request" style="text;html=1;strokeColor=none;fillColor=none;align=center;verticalAlign=middle;whiteSpace=wrap;rounded=0;" parent="1" vertex="1">
                    <mxGeometry x="520" y="840" width="60" height="30" as="geometry"/>
                </mxCell>
                <mxCell id="65" value="About" style="ellipse;whiteSpace=wrap;html=1;" parent="1" vertex="1">
                    <mxGeometry x="-320" y="470" width="120" height="80" as="geometry"/>
                </mxCell>
                <mxCell id="67" value="Contact" style="ellipse;whiteSpace=wrap;html=1;" parent="1" vertex="1">
                    <mxGeometry x="1010" y="480" width="120" height="80" as="geometry"/>
                </mxCell>
                <mxCell id="71" value="Navbar" style="ellipse;whiteSpace=wrap;html=1;" parent="1" vertex="1">
                    <mxGeometry x="-510" y="470" width="120" height="80" as="geometry"/>
                </mxCell>
                <mxCell id="73" value="Login" style="ellipse;whiteSpace=wrap;html=1;" parent="1" vertex="1">
                    <mxGeometry x="1215" y="480" width="120" height="80" as="geometry"/>
                </mxCell>
                <mxCell id="75" value="Register" style="ellipse;whiteSpace=wrap;html=1;" parent="1" vertex="1">
                    <mxGeometry x="1420" y="480" width="120" height="80" as="geometry"/>
                </mxCell>
                <mxCell id="77" value="Home" style="ellipse;whiteSpace=wrap;html=1;" parent="1" vertex="1">
                    <mxGeometry x="365" y="480" width="120" height="80" as="geometry"/>
                </mxCell>
                <mxCell id="80" value="AdoptionApplication" style="ellipse;whiteSpace=wrap;html=1;" vertex="1" parent="1">
                    <mxGeometry x="-35" y="1050" width="120" height="80" as="geometry"/>
                </mxCell>
                <mxCell id="81" value="" style="edgeStyle=none;html=1;endArrow=none;" edge="1" parent="1" source="13" target="82">
                    <mxGeometry relative="1" as="geometry">
                        <mxPoint x="25" y="1050" as="targetPoint"/>
                        <mxPoint x="25" y="980" as="sourcePoint"/>
                    </mxGeometry>
                </mxCell>
                <mxCell id="82" value="Text" style="text;html=1;strokeColor=none;fillColor=none;align=center;verticalAlign=middle;whiteSpace=wrap;rounded=0;" vertex="1" parent="1">
                    <mxGeometry x="-5" y="995" width="60" height="30" as="geometry"/>
                </mxCell>
                <mxCell id="83" value="adoptMeButton&lt;br&gt;" style="text;html=1;strokeColor=none;fillColor=none;align=center;verticalAlign=middle;whiteSpace=wrap;rounded=0;" vertex="1" parent="1">
                    <mxGeometry x="-110" y="925" width="60" height="30" as="geometry"/>
                </mxCell>
            </root>
        </mxGraphModel>
    </diagram>
</mxfile>